<svg width="380" height="426" viewBox="0 0 380 426" fill="none" xmlns="http://www.w3.org/2000/svg">
<path fill-rule="evenodd" clip-rule="evenodd" d="M102.584 97.8628C102.584 93.8272 103.928 82.393 110.313 73.9855C129.468 53.4712 182.565 22.5316 243.727 44.7274C261.202 51.7897 265.234 53.8075 276.996 62.215C286.742 69.2773 294.807 77.3485 300.52 87.7738C305.561 96.5176 306.905 105.934 306.905 116.023C306.905 120.059 306.569 123.758 306.569 127.794C306.569 128.802 306.905 130.148 307.241 131.157C312.954 118.713 313.626 105.934 309.93 93.1546C306.233 80.3752 298.168 69.9499 288.758 60.8698C289.094 60.5335 289.43 60.1972 290.102 59.8609C291.446 60.5335 292.791 60.8698 294.135 61.5424C302.2 66.5869 309.929 72.9766 315.306 80.7115C327.404 97.5265 332.445 116.359 326.396 136.874C320.683 155.706 308.249 168.486 291.783 177.566C289.43 178.911 286.742 179.92 284.389 181.265C283.045 181.938 281.365 182.947 281.365 183.956C281.365 185.301 282.709 186.646 283.717 187.655C291.11 192.699 299.176 197.408 306.569 202.788C321.355 213.55 333.117 227.002 342.527 242.472C362.354 276.774 354.289 315.449 355.297 316.458C355.969 314.44 364.706 289.554 355.297 254.579C351.264 242.136 344.879 230.701 336.478 220.612C331.773 215.232 327.068 209.851 322.363 204.47C321.691 203.461 321.019 202.452 320.347 201.443C320.683 201.107 320.683 200.771 321.019 200.434C322.364 200.771 324.044 201.107 325.388 201.78C335.806 208.506 346.559 215.232 354.625 224.984C361.682 233.392 367.059 242.808 370.755 252.897C376.132 267.358 379.829 282.155 379.157 297.961C378.485 325.874 367.395 349.415 348.576 369.593C334.461 384.727 317.323 395.825 298.168 403.896C285.734 409.277 272.627 412.976 259.521 415.666C232.637 421.72 206.089 419.702 180.212 411.295C167.106 407.259 154.672 401.542 141.902 396.161C118.378 386.072 95.1905 375.647 71.6667 365.894C64.9456 363.204 57.2163 362.195 50.1592 366.567C44.7823 369.93 42.4299 378.001 45.1184 383.718C48.1428 389.435 54.1918 391.789 60.9129 389.771C62.2571 389.435 63.9374 389.771 65.2816 389.771C64.9456 391.117 64.6095 393.134 63.6014 394.143C54.5279 403.896 42.4299 404.232 32.3483 393.807C28.6517 390.108 26.6353 384.727 23.9469 379.682C22.6027 383.382 22.9387 387.754 24.619 390.78C31.3401 404.569 46.7986 413.985 64.2735 405.914C70.3225 402.887 74.6912 397.506 77.7157 391.453C78.3878 390.108 79.3959 389.099 80.4041 388.09C81.0762 389.435 82.4204 391.117 82.0844 392.462C81.4123 404.569 76.3714 413.985 65.6177 420.038C56.2082 425.083 46.4626 427.437 35.7088 425.083C21.5945 422.392 12.185 413.649 5.79995 401.542C-1.92931 387.081 -1.59326 371.611 4.79178 357.15C11.8489 341.68 24.619 332.937 41.4218 329.91C58.8966 326.883 74.6912 331.928 89.4776 340.672C105.608 350.761 122.075 360.177 138.542 370.266C154.336 380.019 170.803 388.09 189.286 392.462C207.097 396.834 225.244 396.161 243.391 392.462C256.161 389.771 268.259 385.736 279.685 379.346C292.119 372.284 302.872 363.204 311.274 351.769C318.331 342.017 323.708 331.591 326.732 319.821C330.429 305.36 331.101 290.899 328.413 276.102C325.052 255.588 315.642 238.1 301.528 223.303C295.479 216.913 288.422 211.532 281.029 207.16C268.595 200.098 255.825 194.045 243.055 187.991C238.686 185.973 233.645 184.628 229.276 182.61C227.932 182.274 227.26 180.929 225.916 179.92C227.26 179.247 228.268 178.239 229.612 177.902C243.391 175.548 256.161 170.167 266.242 160.415C282.037 144.945 290.774 123.422 279.349 99.5443C249.44 46.0726 178.868 50.1082 151.312 67.9321C143.918 72.6403 135.181 81.3841 130.14 89.119C126.108 95.5087 124.763 113.333 124.427 120.395C124.091 136.874 124.091 128.802 123.755 145.617C123.755 175.548 123.419 205.143 123.419 235.073C123.419 250.879 123.419 266.686 126.108 282.492C128.46 294.598 132.829 305.696 140.222 315.785C148.623 326.883 157.697 337.309 170.131 344.371C188.95 355.469 208.777 360.513 230.285 356.141C245.743 353.115 259.521 346.052 269.939 333.609C281.701 319.485 286.07 303.006 284.725 284.846C281.365 257.942 265.57 239.781 265.57 239.781C265.57 239.781 287.75 271.394 275.316 313.768C265.906 332.937 249.776 345.716 228.94 350.424C215.834 353.451 175.508 352.778 164.418 323.857C156.689 303.679 170.467 293.253 170.467 293.253C170.467 293.253 164.082 313.095 176.852 326.547C187.942 338.317 206.089 346.052 226.252 339.999C246.751 333.946 252.8 318.476 256.497 300.652C258.849 289.554 257.841 277.783 255.489 267.022C252.464 253.906 245.407 244.49 236.333 234.401C228.94 225.657 219.867 219.267 210.121 213.55C194.999 204.47 179.876 195.054 165.762 184.292C153.328 174.876 142.574 163.441 137.533 147.972C133.165 134.183 133.165 120.395 138.878 106.943C145.599 92.1457 157.025 82.7293 172.147 77.0122C188.278 70.6225 204.744 69.9499 221.211 73.6492C239.358 78.0211 254.48 87.1012 262.21 105.261C268.595 120.395 266.242 134.183 255.825 146.626C245.407 159.406 231.965 165.795 215.834 167.141C213.818 167.477 211.465 166.804 209.449 166.468C209.449 166.132 209.449 165.459 209.449 165.123C210.457 164.787 211.465 164.114 212.474 163.778C221.883 160.751 230.621 156.379 237.342 148.98C241.374 144.609 244.399 139.564 245.743 133.511C246.415 130.148 247.087 126.448 247.423 123.085C247.423 121.74 247.087 120.059 246.751 118.377C243.727 125.776 241.71 132.838 237.678 138.555C233.981 144.272 228.604 149.317 221.547 150.998C221.211 150.662 220.875 150.326 220.539 150.326C221.547 148.644 222.219 146.626 223.227 144.945C232.301 129.811 231.965 114.342 222.219 100.553C214.49 89.119 203.736 85.4197 189.958 90.4642C180.212 94.1635 174.163 100.553 170.803 110.306C164.082 129.475 169.123 146.29 179.204 162.096C186.261 173.194 196.343 181.265 208.105 187.319C219.531 193.036 230.957 198.417 242.382 204.47C252.464 209.851 262.546 214.895 271.955 221.621C283.717 229.692 293.799 239.445 300.52 252.225C305.561 261.641 308.921 271.73 310.266 282.492C311.61 293.253 311.946 304.015 308.585 314.776C304.553 327.892 297.832 339.326 288.422 349.079C272.963 365.221 253.472 372.956 232.301 375.983C216.506 378.001 201.048 376.319 185.589 371.947C167.778 366.903 151.984 358.159 136.525 348.406C127.788 342.689 119.723 336.636 110.649 331.255C99.5592 324.529 88.1334 318.476 76.3714 312.422C73.683 311.077 72.3388 309.059 72.3388 306.033C72.6748 274.757 72.6748 243.481 72.6748 212.205C72.6748 168.486 73.0109 141.246 73.0109 97.1902C73.0109 94.1635 72.6748 93.4909 72.0027 90.8005C69.3143 79.7026 64.2735 75.3307 52.1755 72.6403C45.4544 71.2951 39.0694 72.6403 33.3564 77.0122C31.3401 78.6937 29.3238 80.0389 26.9714 81.3841C22.2666 84.4108 18.234 82.7293 17.2258 77.0122C16.2176 71.2951 16.5537 65.2417 19.9142 60.1972C24.283 53.1349 37.7251 45.7363 59.5687 55.489C76.0354 63.5602 92.8381 73.9855 93.8463 97.5265C94.8545 128.13 94.8545 123.085 95.8626 153.352C96.1987 161.424 97.5429 269.04 98.215 277.111" fill="#F7AB42"/>
<path fill-rule="evenodd" clip-rule="evenodd" d="M144.591 25.5592C142.574 27.2407 140.894 28.9222 138.878 30.6037C130.476 38.3386 121.739 46.4098 113.338 54.1447C109.977 57.5077 106.28 60.5344 102.92 63.8974C102.584 63.8974 102.584 63.8974 102.248 64.2337C102.248 63.8974 102.248 63.8974 102.248 63.5611C102.584 62.5522 103.256 61.5433 103.592 60.5344C108.969 49.1002 114.01 37.666 119.387 26.2318C119.387 25.8955 119.723 25.5592 120.059 25.5592C128.124 25.5592 136.189 25.5592 144.255 25.5592C144.255 25.5592 144.255 25.5592 144.591 25.5592Z" fill="#F7AB42"/>
<path fill-rule="evenodd" clip-rule="evenodd" d="M52.8489 25.5592C53.1849 25.5592 53.521 25.5592 53.857 25.5592C61.5863 25.5592 69.3156 25.5592 77.3809 25.5592C78.053 25.5592 78.389 25.5592 78.389 26.2318C84.102 38.6749 89.8149 51.118 95.1918 63.5611V63.8974V64.2337C94.8557 64.2337 94.8557 64.2337 94.5197 64.2337C94.1836 63.8974 93.5115 63.5611 93.1755 63.2248C82.7578 53.4721 72.004 43.7194 61.5863 33.9667C58.8979 31.6126 56.2094 28.9222 53.521 26.5681C53.521 26.2318 53.1849 25.8955 52.8489 25.5592Z" fill="#F7AB42"/>
<path fill-rule="evenodd" clip-rule="evenodd" d="M98.552 56.4988C93.8473 46.0735 89.1425 35.9845 84.4377 25.5592C93.8473 25.5592 103.257 25.5592 112.666 25.5592C107.962 35.9845 103.593 46.4098 98.552 56.4988Z" fill="#F7AB42"/>
<path fill-rule="evenodd" clip-rule="evenodd" d="M100.231 0C108.297 0 116.362 0 124.427 0C121.739 6.0534 119.05 11.7705 116.362 17.8239C110.985 11.7705 105.608 6.0534 100.231 0Z" fill="#F7AB42"/>
<path fill-rule="evenodd" clip-rule="evenodd" d="M81.0773 17.8239C78.0528 11.7705 75.7004 6.0534 73.012 0C81.0773 0 89.1426 0 97.2079 0C91.831 6.0534 86.4541 11.7705 81.0773 17.8239Z" fill="#F7AB42"/>
<path fill-rule="evenodd" clip-rule="evenodd" d="M144.926 20.5146C137.197 20.5146 129.468 20.5146 121.739 20.5146C124.427 14.4612 127.115 8.40783 130.14 2.01813C135.181 8.40783 139.885 14.4612 144.926 20.5146Z" fill="#F7AB42"/>
<path fill-rule="evenodd" clip-rule="evenodd" d="M75.3638 20.5146C67.6345 20.5146 59.9053 20.5146 52.176 20.5146C57.2168 14.4612 61.9216 8.40783 66.9624 2.01813C69.9869 8.40783 72.6754 14.4612 75.3638 20.5146Z" fill="#F7AB42"/>
<path fill-rule="evenodd" clip-rule="evenodd" d="M110.986 20.5141C102.585 20.5141 94.5193 20.5141 86.1179 20.5141C90.1506 15.8059 94.5193 11.434 98.5519 6.72577C102.921 11.434 106.953 15.8059 110.986 20.5141Z" fill="#F7AB42"/>
</svg>
