<svg width="22" height="20" viewBox="0 0 22 20" fill="none" xmlns="http://www.w3.org/2000/svg">
<path d="M22 2.5H3.8885L3.85 2.2075C3.77121 1.59951 3.44977 1.03894 2.94662 0.632065C2.44346 0.225186 1.79358 0.000284828 1.12017 0L0 0V1.66667H1.12017C1.34469 1.66669 1.56139 1.74163 1.72917 1.87726C1.89696 2.0129 2.00415 2.19979 2.03042 2.4025L3.48333 13.6258C3.56212 14.2338 3.88356 14.7944 4.38672 15.2013C4.88987 15.6081 5.53976 15.833 6.21317 15.8333H18.3333V14.1667H6.21317C5.9885 14.1666 5.77168 14.0916 5.60388 13.9558C5.43608 13.82 5.32898 13.6329 5.30292 13.43L5.18283 12.5H20.0163L22 2.5ZM18.4837 10.8333H4.96742L4.10483 4.16667H19.8064L18.4837 10.8333Z" fill="#757C82"/>
<path d="M6.41659 20C7.42911 20 8.24992 19.2538 8.24992 18.3333C8.24992 17.4129 7.42911 16.6667 6.41659 16.6667C5.40406 16.6667 4.58325 17.4129 4.58325 18.3333C4.58325 19.2538 5.40406 20 6.41659 20Z" fill="#757C82"/>
<path d="M15.5833 20C16.5959 20 17.4167 19.2538 17.4167 18.3333C17.4167 17.4129 16.5959 16.6667 15.5833 16.6667C14.5708 16.6667 13.75 17.4129 13.75 18.3333C13.75 19.2538 14.5708 20 15.5833 20Z" fill="#757C82"/>
</svg>
