<svg width="54" height="34" viewBox="0 0 54 34" fill="none" xmlns="http://www.w3.org/2000/svg">
<mask id="path-1-inside-1_4_411" fill="white">
<path fill-rule="evenodd" clip-rule="evenodd" d="M1.6875 0.138897C1.16986 0.303299 0.28698 1.22446 0.12825 1.76581C0.0305859 2.09886 0 5.32643 0 15.2936V28.3842L0.258926 28.645C0.510891 28.8989 0.560145 28.9059 2.10938 28.9059C3.65861 28.9059 3.70786 28.8989 3.95982 28.645C4.30239 28.2999 4.30239 27.8115 3.95982 27.4664C3.72115 27.2258 3.62254 27.2055 2.6942 27.2055H1.6875V14.7138V2.22203L1.94643 1.96124L2.20525 1.70034H17.9777H33.75V14.4529V27.2055H25.9933H18.2365L17.9777 27.4664C17.6351 27.8115 17.6351 28.2999 17.9777 28.645L18.2365 28.9059H26.5781H34.9198L35.1786 28.645L35.4375 28.3842V14.4529V0.521686L35.1786 0.260897L34.9198 0L18.4881 0.0108394C6.83047 0.0185972 1.94938 0.0557925 1.6875 0.138897ZM37.3839 0.260897C37.2207 0.425299 37.125 0.643155 37.125 0.850172C37.125 1.05719 37.2207 1.27505 37.3839 1.43945L37.6427 1.70034H41.5382C45.9612 1.70034 45.7199 1.6522 46.0256 2.596C46.119 2.8841 46.1953 3.18294 46.1953 3.2602C46.1953 3.3738 45.538 3.40069 42.7628 3.40069H39.3302L39.0714 3.66159L38.8125 3.92237V8.50172V13.0811L39.0714 13.3419L39.3302 13.6028H44.3289H49.3275L50.82 15.8635L52.3125 18.1242V22.6648V27.2055H51.3058C50.3775 27.2055 50.2789 27.2258 50.0402 27.4664C49.8769 27.6308 49.7812 27.8487 49.7812 28.0557C49.7812 28.2627 49.8769 28.4806 50.0402 28.645C50.2921 28.8989 50.3414 28.9059 51.8906 28.9059C53.4399 28.9059 53.4891 28.8989 53.7411 28.645L54 28.3842V22.9857V17.5873L52.2728 14.9781L50.5457 12.3689L49.0429 7.06121C48.2164 4.14193 47.4527 1.5793 47.346 1.36633C47.0941 0.8642 46.411 0.279494 45.8939 0.123382C45.6156 0.0393208 44.2349 0 41.5641 0H37.6427L37.3839 0.260897ZM20.5895 3.58666C20.4733 3.689 19.9935 4.38264 19.5231 5.12813C18.9284 6.07087 18.668 6.58341 18.668 6.81169C18.668 7.09012 18.9073 7.39023 20.2495 8.79482L21.8311 10.45L21.295 10.6402C19.1945 11.3855 17.5603 13.289 17.046 15.5897C16.1163 19.7483 19.3634 23.8011 23.625 23.8011C27.8868 23.8011 31.1021 19.7886 30.2164 15.5756C29.7591 13.4005 28.0076 11.3685 25.9656 10.6439L25.4189 10.45L27.0005 8.79482C28.3427 7.39023 28.582 7.09012 28.582 6.81169C28.582 6.58341 28.3216 6.07087 27.7269 5.12813C27.2565 4.38264 26.7767 3.689 26.6605 3.58666C26.4707 3.4195 26.1641 3.40069 23.625 3.40069C21.0859 3.40069 20.7793 3.4195 20.5895 3.58666ZM26.2127 5.90955L26.7127 6.71795L25.1689 8.27356L23.625 9.82927L22.0811 8.27356L20.5373 6.71795L21.0373 5.90955L21.5375 5.10103H23.625H25.7125L26.2127 5.90955ZM47.6873 8.44859C48.2008 10.2605 48.621 11.7789 48.621 11.8227C48.6211 11.8665 46.7938 11.9024 44.5605 11.9024H40.5V8.50013V5.09784L43.6268 5.12601L46.7536 5.15417L47.6873 8.44859ZM24.8335 12.0651C26.6526 12.5426 28.0537 13.959 28.5301 15.8018C29.2133 18.4445 27.5345 21.2328 24.8335 21.9418C22.1943 22.6345 19.4296 20.9507 18.724 18.2211C17.7839 14.5847 21.2245 11.1179 24.8335 12.0651ZM7.85268 13.0135C7.68941 13.1779 7.59375 13.3957 7.59375 13.6028C7.59375 13.8098 7.68941 14.0276 7.85268 14.192L8.1115 14.4529H11.8125H15.5135L15.7723 14.192C15.9356 14.0276 16.0312 13.8098 16.0312 13.6028C16.0312 13.3957 15.9356 13.1779 15.7723 13.0135L15.5135 12.7526H11.8125H8.1115L7.85268 13.0135ZM4.47768 16.4142C4.31441 16.5786 4.21875 16.7964 4.21875 17.0034C4.21875 17.2105 4.31441 17.4283 4.47768 17.5927L4.7365 17.8536H9.28125H13.826L14.0848 17.5927C14.2481 17.4283 14.3438 17.2105 14.3438 17.0034C14.3438 16.7964 14.2481 16.5786 14.0848 16.4142L13.826 16.1533H9.28125H4.7365L4.47768 16.4142ZM9.54018 19.8149C9.37691 19.9793 9.28125 20.1971 9.28125 20.4041C9.28125 20.6111 9.37691 20.829 9.54018 20.9934L9.799 21.2543H12.6562H15.5135L15.7723 20.9934C15.9356 20.829 16.0312 20.6111 16.0312 20.4041C16.0312 20.1971 15.9356 19.9793 15.7723 19.8149L15.5135 19.554H12.6562H9.799L9.54018 19.8149ZM9.71494 23.9728C7.04078 24.6975 5.38629 27.4874 6.06772 30.1235C6.77331 32.8531 9.53807 34.5369 12.1772 33.8442C14.6841 33.1863 16.3221 30.7531 15.9606 28.2244C15.531 25.2194 12.5652 23.2005 9.71494 23.9728ZM41.7774 23.9728C39.1033 24.6975 37.4488 27.4874 38.1302 30.1235C38.8358 32.8531 41.6006 34.5369 44.2397 33.8442C46.7466 33.1863 48.3846 30.7531 48.0231 28.2244C47.5935 25.2194 44.6277 23.2005 41.7774 23.9728ZM12.3926 25.8325C13.0592 26.1512 13.6945 26.7876 14.028 27.4712C14.2421 27.9099 14.2871 28.1601 14.2864 28.9059C14.2855 29.7292 14.2539 29.8685 13.9279 30.4788C13.5295 31.2248 13.1983 31.5471 12.4039 31.9619C11.9474 32.2003 11.7284 32.2437 10.9688 32.2465C10.2257 32.2492 9.98198 32.2049 9.54492 31.9884C6.80326 30.63 7.0316 26.7315 9.91459 25.6759C10.5802 25.4323 11.7041 25.5032 12.3926 25.8325ZM44.4551 25.8325C45.1217 26.1512 45.757 26.7876 46.0905 27.4712C46.3046 27.9099 46.3496 28.1601 46.3489 28.9059C46.348 29.7292 46.3164 29.8685 45.9904 30.4788C45.592 31.2248 45.2608 31.5471 44.4664 31.9619C44.0099 32.2003 43.7909 32.2437 43.0312 32.2465C42.2882 32.2492 42.0445 32.2049 41.6074 31.9884C38.8658 30.63 39.0941 26.7315 41.9771 25.6759C42.6427 25.4323 43.7666 25.5032 44.4551 25.8325Z"/>
</mask>
<path fill-rule="evenodd" clip-rule="evenodd" d="M1.6875 0.138897C1.16986 0.303299 0.28698 1.22446 0.12825 1.76581C0.0305859 2.09886 0 5.32643 0 15.2936V28.3842L0.258926 28.645C0.510891 28.8989 0.560145 28.9059 2.10938 28.9059C3.65861 28.9059 3.70786 28.8989 3.95982 28.645C4.30239 28.2999 4.30239 27.8115 3.95982 27.4664C3.72115 27.2258 3.62254 27.2055 2.6942 27.2055H1.6875V14.7138V2.22203L1.94643 1.96124L2.20525 1.70034H17.9777H33.75V14.4529V27.2055H25.9933H18.2365L17.9777 27.4664C17.6351 27.8115 17.6351 28.2999 17.9777 28.645L18.2365 28.9059H26.5781H34.9198L35.1786 28.645L35.4375 28.3842V14.4529V0.521686L35.1786 0.260897L34.9198 0L18.4881 0.0108394C6.83047 0.0185972 1.94938 0.0557925 1.6875 0.138897ZM37.3839 0.260897C37.2207 0.425299 37.125 0.643155 37.125 0.850172C37.125 1.05719 37.2207 1.27505 37.3839 1.43945L37.6427 1.70034H41.5382C45.9612 1.70034 45.7199 1.6522 46.0256 2.596C46.119 2.8841 46.1953 3.18294 46.1953 3.2602C46.1953 3.3738 45.538 3.40069 42.7628 3.40069H39.3302L39.0714 3.66159L38.8125 3.92237V8.50172V13.0811L39.0714 13.3419L39.3302 13.6028H44.3289H49.3275L50.82 15.8635L52.3125 18.1242V22.6648V27.2055H51.3058C50.3775 27.2055 50.2789 27.2258 50.0402 27.4664C49.8769 27.6308 49.7812 27.8487 49.7812 28.0557C49.7812 28.2627 49.8769 28.4806 50.0402 28.645C50.2921 28.8989 50.3414 28.9059 51.8906 28.9059C53.4399 28.9059 53.4891 28.8989 53.7411 28.645L54 28.3842V22.9857V17.5873L52.2728 14.9781L50.5457 12.3689L49.0429 7.06121C48.2164 4.14193 47.4527 1.5793 47.346 1.36633C47.0941 0.8642 46.411 0.279494 45.8939 0.123382C45.6156 0.0393208 44.2349 0 41.5641 0H37.6427L37.3839 0.260897ZM20.5895 3.58666C20.4733 3.689 19.9935 4.38264 19.5231 5.12813C18.9284 6.07087 18.668 6.58341 18.668 6.81169C18.668 7.09012 18.9073 7.39023 20.2495 8.79482L21.8311 10.45L21.295 10.6402C19.1945 11.3855 17.5603 13.289 17.046 15.5897C16.1163 19.7483 19.3634 23.8011 23.625 23.8011C27.8868 23.8011 31.1021 19.7886 30.2164 15.5756C29.7591 13.4005 28.0076 11.3685 25.9656 10.6439L25.4189 10.45L27.0005 8.79482C28.3427 7.39023 28.582 7.09012 28.582 6.81169C28.582 6.58341 28.3216 6.07087 27.7269 5.12813C27.2565 4.38264 26.7767 3.689 26.6605 3.58666C26.4707 3.4195 26.1641 3.40069 23.625 3.40069C21.0859 3.40069 20.7793 3.4195 20.5895 3.58666ZM26.2127 5.90955L26.7127 6.71795L25.1689 8.27356L23.625 9.82927L22.0811 8.27356L20.5373 6.71795L21.0373 5.90955L21.5375 5.10103H23.625H25.7125L26.2127 5.90955ZM47.6873 8.44859C48.2008 10.2605 48.621 11.7789 48.621 11.8227C48.6211 11.8665 46.7938 11.9024 44.5605 11.9024H40.5V8.50013V5.09784L43.6268 5.12601L46.7536 5.15417L47.6873 8.44859ZM24.8335 12.0651C26.6526 12.5426 28.0537 13.959 28.5301 15.8018C29.2133 18.4445 27.5345 21.2328 24.8335 21.9418C22.1943 22.6345 19.4296 20.9507 18.724 18.2211C17.7839 14.5847 21.2245 11.1179 24.8335 12.0651ZM7.85268 13.0135C7.68941 13.1779 7.59375 13.3957 7.59375 13.6028C7.59375 13.8098 7.68941 14.0276 7.85268 14.192L8.1115 14.4529H11.8125H15.5135L15.7723 14.192C15.9356 14.0276 16.0312 13.8098 16.0312 13.6028C16.0312 13.3957 15.9356 13.1779 15.7723 13.0135L15.5135 12.7526H11.8125H8.1115L7.85268 13.0135ZM4.47768 16.4142C4.31441 16.5786 4.21875 16.7964 4.21875 17.0034C4.21875 17.2105 4.31441 17.4283 4.47768 17.5927L4.7365 17.8536H9.28125H13.826L14.0848 17.5927C14.2481 17.4283 14.3438 17.2105 14.3438 17.0034C14.3438 16.7964 14.2481 16.5786 14.0848 16.4142L13.826 16.1533H9.28125H4.7365L4.47768 16.4142ZM9.54018 19.8149C9.37691 19.9793 9.28125 20.1971 9.28125 20.4041C9.28125 20.6111 9.37691 20.829 9.54018 20.9934L9.799 21.2543H12.6562H15.5135L15.7723 20.9934C15.9356 20.829 16.0312 20.6111 16.0312 20.4041C16.0312 20.1971 15.9356 19.9793 15.7723 19.8149L15.5135 19.554H12.6562H9.799L9.54018 19.8149ZM9.71494 23.9728C7.04078 24.6975 5.38629 27.4874 6.06772 30.1235C6.77331 32.8531 9.53807 34.5369 12.1772 33.8442C14.6841 33.1863 16.3221 30.7531 15.9606 28.2244C15.531 25.2194 12.5652 23.2005 9.71494 23.9728ZM41.7774 23.9728C39.1033 24.6975 37.4488 27.4874 38.1302 30.1235C38.8358 32.8531 41.6006 34.5369 44.2397 33.8442C46.7466 33.1863 48.3846 30.7531 48.0231 28.2244C47.5935 25.2194 44.6277 23.2005 41.7774 23.9728ZM12.3926 25.8325C13.0592 26.1512 13.6945 26.7876 14.028 27.4712C14.2421 27.9099 14.2871 28.1601 14.2864 28.9059C14.2855 29.7292 14.2539 29.8685 13.9279 30.4788C13.5295 31.2248 13.1983 31.5471 12.4039 31.9619C11.9474 32.2003 11.7284 32.2437 10.9688 32.2465C10.2257 32.2492 9.98198 32.2049 9.54492 31.9884C6.80326 30.63 7.0316 26.7315 9.91459 25.6759C10.5802 25.4323 11.7041 25.5032 12.3926 25.8325ZM44.4551 25.8325C45.1217 26.1512 45.757 26.7876 46.0905 27.4712C46.3046 27.9099 46.3496 28.1601 46.3489 28.9059C46.348 29.7292 46.3164 29.8685 45.9904 30.4788C45.592 31.2248 45.2608 31.5471 44.4664 31.9619C44.0099 32.2003 43.7909 32.2437 43.0312 32.2465C42.2882 32.2492 42.0445 32.2049 41.6074 31.9884C38.8658 30.63 39.0941 26.7315 41.9771 25.6759C42.6427 25.4323 43.7666 25.5032 44.4551 25.8325Z" fill="#F7AB42" stroke="#F6F8FA" stroke-width="0.2" mask="url(#path-1-inside-1_4_411)"/>
</svg>
