<svg width="15" height="13" viewBox="0 0 15 13" fill="none" xmlns="http://www.w3.org/2000/svg">
<path d="M11.875 0H3.125C2.2965 0.000938279 1.50222 0.312521 0.916387 0.866403C0.330551 1.42028 0.000992411 2.17124 0 2.95455L0 10.0455C0.000992411 10.8288 0.330551 11.5797 0.916387 12.1336C1.50222 12.6875 2.2965 12.9991 3.125 13H11.875C12.7035 12.9991 13.4978 12.6875 14.0836 12.1336C14.6694 11.5797 14.999 10.8288 15 10.0455V2.95455C14.999 2.17124 14.6694 1.42028 14.0836 0.866403C13.4978 0.312521 12.7035 0.000938279 11.875 0ZM3.125 1.18182H11.875C12.2492 1.18251 12.6147 1.28908 12.9243 1.48779C13.234 1.68651 13.4737 1.96829 13.6125 2.29686L8.82625 6.82264C8.47402 7.15432 7.99713 7.34055 7.5 7.34055C7.00287 7.34055 6.52598 7.15432 6.17375 6.82264L1.3875 2.29686C1.52634 1.96829 1.76601 1.68651 2.07565 1.48779C2.3853 1.28908 2.75076 1.18251 3.125 1.18182ZM11.875 11.8182H3.125C2.62772 11.8182 2.15081 11.6314 1.79917 11.299C1.44754 10.9665 1.25 10.5156 1.25 10.0455V3.84091L5.29 7.65818C5.87664 8.21142 6.67141 8.52211 7.5 8.52211C8.32859 8.52211 9.12336 8.21142 9.71 7.65818L13.75 3.84091V10.0455C13.75 10.5156 13.5525 10.9665 13.2008 11.299C12.8492 11.6314 12.3723 11.8182 11.875 11.8182Z" fill="#757C82"/>
</svg>