<svg width="39" height="50" viewBox="0 0 39 50" fill="none" xmlns="http://www.w3.org/2000/svg">
<mask id="path-1-inside-1_4_415" fill="white">
<path fill-rule="evenodd" clip-rule="evenodd" d="M14.3191 0.171094C14.1564 0.30293 14.0002 0.771289 13.6389 2.21104C13.381 3.23887 13.0756 4.2748 12.9602 4.51309C12.5169 5.42939 11.6481 6.17197 10.6527 6.48535C10.3843 6.56982 8.91268 6.79336 7.38251 6.98203C5.85234 7.1707 4.38073 7.37393 4.11228 7.43379C3.3165 7.61094 2.44466 8.07812 1.80185 8.67178C0.062965 10.2776 -0.405409 12.2621 0.345083 14.8438C2.79814 23.2822 6.50394 30.0942 10.6575 33.8003C12.9243 35.8228 15.5289 37.0905 18.0229 37.3852C19.1095 37.5135 19.4872 37.3225 19.4872 36.6445C19.4872 36.1704 19.147 35.9506 18.2364 35.8363C15.599 35.5055 13.3409 34.2924 10.9846 31.9404C8.76625 29.726 7.14129 27.3285 5.33505 23.6052C4.20902 21.2838 3.48499 19.4938 2.6398 16.9419C1.52012 13.5613 1.36373 12.6907 1.68246 11.6145C2.00548 10.5236 2.73733 9.66689 3.73694 9.20898C4.18481 9.00391 5.70503 8.69941 6.3087 8.69385C6.4111 8.69297 6.50931 8.92012 6.63533 9.44883C7.16706 11.6811 8.39833 13.8847 10.0628 15.5828C10.4142 15.9413 10.7015 16.2655 10.7015 16.3033C10.7015 16.3412 10.5923 16.4749 10.4588 16.6004C10.0824 16.954 9.26372 18.1842 8.91639 18.9177C8.64159 19.4979 8.60352 19.677 8.60899 20.3613C8.61904 21.6066 9.1334 22.4601 10.2305 23.052C10.7949 23.3563 10.9193 23.3851 11.6777 23.3851C12.4355 23.3851 12.5609 23.3563 13.1226 23.0532C13.808 22.6835 14.104 22.3767 14.485 21.6413C14.8571 20.9234 14.8579 19.8188 14.4869 19.0186C14.3438 18.7098 14.2378 18.457 14.2513 18.457C14.2649 18.457 14.6249 18.5839 15.0513 18.739C15.7132 18.9796 16.1861 19.1005 17.6031 19.3908C17.8039 19.4319 17.7801 19.4872 17.238 20.2398C15.5927 22.5244 15.2107 24.3055 16.0165 25.9362C16.4338 26.781 17.0158 27.3444 17.9078 27.7671C18.4975 28.0466 18.6486 28.0762 19.4872 28.0762C20.3259 28.0762 20.477 28.0466 21.0667 27.7671C21.9586 27.3444 22.5406 26.781 22.958 25.9362C23.7637 24.3055 23.3817 22.5244 21.7364 20.2398C21.1944 19.4872 21.1706 19.4319 21.3714 19.3908C22.7883 19.1005 23.2613 18.9796 23.9231 18.739C24.3495 18.5839 24.7095 18.457 24.7231 18.457C24.7367 18.457 24.6306 18.7098 24.4875 19.0186C24.2727 19.4819 24.2277 19.7166 24.2301 20.3613C24.2346 21.6031 24.7495 22.4586 25.8495 23.052C26.4138 23.3563 26.5383 23.3851 27.2967 23.3851C28.0545 23.3851 28.1799 23.3563 28.7416 23.0532C29.4273 22.6832 29.7237 22.376 30.1033 21.6413C30.3167 21.2284 30.362 21.0082 30.3664 20.3613C30.371 19.6781 30.3324 19.497 30.058 18.9177C29.7107 18.1842 28.892 16.954 28.5157 16.6004C28.3821 16.4749 28.2729 16.3418 28.2729 16.3045C28.2729 16.2673 28.5617 15.9379 28.9144 15.5726C30.5931 13.8344 31.824 11.6413 32.3332 9.48105C32.5469 8.57451 32.4398 8.62217 33.8031 8.82695C35.6949 9.11123 36.8308 10.0319 37.3057 11.666C37.5596 12.5396 37.459 13.2404 36.7867 15.2832C35.7351 18.4786 34.4679 21.4727 32.8538 24.5758C32.3745 25.4973 31.9824 26.3246 31.9824 26.4144C31.9824 26.6623 32.5198 27.1484 32.7938 27.1484C33.1744 27.1484 33.3918 26.8885 34.083 25.6069C35.8683 22.2967 38.2413 16.451 38.8684 13.8184C39.4155 11.5223 38.2112 8.94004 36.1007 7.88379C35.2366 7.45137 35.0063 7.40439 31.7384 6.99463L29.1027 6.66416L27.6681 5.79785C25.9368 4.75244 25.9962 4.84404 25.3338 2.2042C24.974 0.770215 24.818 0.302832 24.6553 0.171094C24.4603 0.0130859 24.0648 0 19.4872 0C14.9096 0 14.5141 0.0130859 14.3191 0.171094ZM23.9337 3.04688C24.2672 4.38662 24.6934 5.47354 25.0812 5.97324C25.1507 6.0627 25.9741 6.59697 26.911 7.16035L28.6146 8.18486L29.5907 8.29717C30.8237 8.43896 30.9086 8.46553 30.9086 8.71006C30.9086 9.07471 30.222 10.9732 29.8207 11.7188C28.1456 14.8297 25.36 16.9254 21.8143 17.7422C21.2889 17.8633 20.6554 17.9066 19.4384 17.905C17.9024 17.9029 17.6943 17.8804 16.6411 17.603C12.6239 16.5447 9.53441 13.596 8.31067 9.65215C8.16629 9.18691 8.06359 8.72647 8.08234 8.629C8.11084 8.48105 8.28236 8.43213 9.11758 8.33398C11.2619 8.08203 12.1687 7.71689 13.2545 6.66836C14.1602 5.79355 14.5575 4.98848 15.0398 3.05049L15.4102 1.5625H19.4872H23.5643L23.9337 3.04688ZM12.1841 18.1909C12.8672 19.0986 13.2767 20.0322 13.21 20.5299C13.1511 20.9695 12.9325 21.3158 12.5187 21.6248C12.1407 21.9071 11.2147 21.9071 10.8367 21.6248C9.82649 20.8703 9.92625 19.85 11.1724 18.1909C11.4234 17.8565 11.6509 17.583 11.6777 17.583C11.7046 17.583 11.9324 17.8565 12.1841 18.1909ZM27.8031 18.1909C28.4862 19.0986 28.8957 20.0322 28.829 20.5299C28.7701 20.9695 28.5515 21.3158 28.1377 21.6248C27.7597 21.9071 26.8337 21.9071 26.4557 21.6248C25.4455 20.8703 25.5452 19.85 26.7913 18.1909C27.0424 17.8565 27.2699 17.583 27.2967 17.583C27.3236 17.583 27.5514 17.8565 27.8031 18.1909ZM20.0457 20.5834C21.5045 22.4634 22.0272 23.7979 21.7268 24.8757C21.5598 25.4748 20.787 26.2726 20.208 26.4438C19.2933 26.7141 18.5639 26.5236 17.8711 25.8334C16.6697 24.6366 16.9804 23.0941 18.9287 20.5834C19.209 20.2221 19.4604 19.9265 19.4872 19.9265C19.5141 19.9265 19.7654 20.2221 20.0457 20.5834ZM25.3977 28.9542C21.8724 29.6683 21.3785 29.7905 21.2179 29.989C21.0446 30.2029 21.0377 30.4388 21.075 34.8579C21.1109 39.1077 21.1312 39.5766 21.3147 40.3809C21.9142 43.0086 23.0758 45.1436 24.9085 46.9859C25.3698 47.4497 26.0948 48.0795 26.5196 48.3854C27.4512 49.0564 29.2729 50 29.6368 50C29.7814 50 30.3593 49.7692 30.9211 49.4873C34.5353 47.6733 37.0393 44.4357 37.9644 40.3809C38.148 39.5763 38.1682 39.1078 38.2042 34.8411L38.2435 30.1804L38.0149 29.9518C37.8169 29.7536 37.2508 29.6164 33.7754 28.924C31.5694 28.4846 29.6814 28.1294 29.58 28.1347C29.4785 28.14 27.5965 28.5088 25.3977 28.9542ZM33.2956 30.4281L36.6825 31.1028L36.6413 35.2535C36.5964 39.7593 36.5597 40.1058 35.9585 41.6992C34.9064 44.4878 32.788 46.8453 30.2009 48.1068L29.6396 48.3806L29.0783 48.1068C26.0051 46.6084 23.7209 43.7071 22.8801 40.2344C22.6974 39.4795 22.6756 39.0282 22.6398 35.2539L22.6004 31.1035L26.0467 30.4027C27.9423 30.0174 29.5866 29.7136 29.7009 29.7277C29.8152 29.7419 31.4328 30.0571 33.2956 30.4281ZM30.2596 37.3225L28.8633 38.7073L28.2349 38.1037C27.8841 37.7667 27.5185 37.5 27.4074 37.5C26.8661 37.5 26.4272 38.0127 26.5499 38.5017C26.5809 38.625 27.0409 39.1531 27.5723 39.6754C28.9346 41.0144 28.7548 41.0559 30.9197 38.9022C31.8991 37.9279 32.6782 37.0728 32.7131 36.9341C32.84 36.4279 32.4219 35.9375 31.8633 35.9375C31.7271 35.9375 31.176 36.4135 30.2596 37.3225ZM12.5848 37.7449C12.4417 37.8452 12.3407 38.0712 12.2682 38.4529C11.7821 41.0169 10.7834 43.3399 9.37705 45.1782C8.67635 46.0942 7.41472 47.3438 6.50394 48.0241C6.10126 48.3249 5.69488 48.6557 5.60097 48.7592C5.35477 49.0305 5.38533 49.4758 5.66979 49.7603L5.90935 50H14.9792C24.0071 50 24.0501 49.999 24.3062 49.7976C24.6695 49.5117 24.6695 48.9258 24.3062 48.6399C24.0509 48.439 23.9917 48.4375 16.2915 48.4375H8.53411L9.47428 47.4483C11.4986 45.3186 13.001 42.4812 13.6214 39.6168C13.8784 38.4301 13.8794 38.0831 13.6263 37.8114C13.3911 37.5589 12.8955 37.5272 12.5848 37.7449Z"/>
</mask>
<path fill-rule="evenodd" clip-rule="evenodd" d="M14.3191 0.171094C14.1564 0.30293 14.0002 0.771289 13.6389 2.21104C13.381 3.23887 13.0756 4.2748 12.9602 4.51309C12.5169 5.42939 11.6481 6.17197 10.6527 6.48535C10.3843 6.56982 8.91268 6.79336 7.38251 6.98203C5.85234 7.1707 4.38073 7.37393 4.11228 7.43379C3.3165 7.61094 2.44466 8.07812 1.80185 8.67178C0.062965 10.2776 -0.405409 12.2621 0.345083 14.8438C2.79814 23.2822 6.50394 30.0942 10.6575 33.8003C12.9243 35.8228 15.5289 37.0905 18.0229 37.3852C19.1095 37.5135 19.4872 37.3225 19.4872 36.6445C19.4872 36.1704 19.147 35.9506 18.2364 35.8363C15.599 35.5055 13.3409 34.2924 10.9846 31.9404C8.76625 29.726 7.14129 27.3285 5.33505 23.6052C4.20902 21.2838 3.48499 19.4938 2.6398 16.9419C1.52012 13.5613 1.36373 12.6907 1.68246 11.6145C2.00548 10.5236 2.73733 9.66689 3.73694 9.20898C4.18481 9.00391 5.70503 8.69941 6.3087 8.69385C6.4111 8.69297 6.50931 8.92012 6.63533 9.44883C7.16706 11.6811 8.39833 13.8847 10.0628 15.5828C10.4142 15.9413 10.7015 16.2655 10.7015 16.3033C10.7015 16.3412 10.5923 16.4749 10.4588 16.6004C10.0824 16.954 9.26372 18.1842 8.91639 18.9177C8.64159 19.4979 8.60352 19.677 8.60899 20.3613C8.61904 21.6066 9.1334 22.4601 10.2305 23.052C10.7949 23.3563 10.9193 23.3851 11.6777 23.3851C12.4355 23.3851 12.5609 23.3563 13.1226 23.0532C13.808 22.6835 14.104 22.3767 14.485 21.6413C14.8571 20.9234 14.8579 19.8188 14.4869 19.0186C14.3438 18.7098 14.2378 18.457 14.2513 18.457C14.2649 18.457 14.6249 18.5839 15.0513 18.739C15.7132 18.9796 16.1861 19.1005 17.6031 19.3908C17.8039 19.4319 17.7801 19.4872 17.238 20.2398C15.5927 22.5244 15.2107 24.3055 16.0165 25.9362C16.4338 26.781 17.0158 27.3444 17.9078 27.7671C18.4975 28.0466 18.6486 28.0762 19.4872 28.0762C20.3259 28.0762 20.477 28.0466 21.0667 27.7671C21.9586 27.3444 22.5406 26.781 22.958 25.9362C23.7637 24.3055 23.3817 22.5244 21.7364 20.2398C21.1944 19.4872 21.1706 19.4319 21.3714 19.3908C22.7883 19.1005 23.2613 18.9796 23.9231 18.739C24.3495 18.5839 24.7095 18.457 24.7231 18.457C24.7367 18.457 24.6306 18.7098 24.4875 19.0186C24.2727 19.4819 24.2277 19.7166 24.2301 20.3613C24.2346 21.6031 24.7495 22.4586 25.8495 23.052C26.4138 23.3563 26.5383 23.3851 27.2967 23.3851C28.0545 23.3851 28.1799 23.3563 28.7416 23.0532C29.4273 22.6832 29.7237 22.376 30.1033 21.6413C30.3167 21.2284 30.362 21.0082 30.3664 20.3613C30.371 19.6781 30.3324 19.497 30.058 18.9177C29.7107 18.1842 28.892 16.954 28.5157 16.6004C28.3821 16.4749 28.2729 16.3418 28.2729 16.3045C28.2729 16.2673 28.5617 15.9379 28.9144 15.5726C30.5931 13.8344 31.824 11.6413 32.3332 9.48105C32.5469 8.57451 32.4398 8.62217 33.8031 8.82695C35.6949 9.11123 36.8308 10.0319 37.3057 11.666C37.5596 12.5396 37.459 13.2404 36.7867 15.2832C35.7351 18.4786 34.4679 21.4727 32.8538 24.5758C32.3745 25.4973 31.9824 26.3246 31.9824 26.4144C31.9824 26.6623 32.5198 27.1484 32.7938 27.1484C33.1744 27.1484 33.3918 26.8885 34.083 25.6069C35.8683 22.2967 38.2413 16.451 38.8684 13.8184C39.4155 11.5223 38.2112 8.94004 36.1007 7.88379C35.2366 7.45137 35.0063 7.40439 31.7384 6.99463L29.1027 6.66416L27.6681 5.79785C25.9368 4.75244 25.9962 4.84404 25.3338 2.2042C24.974 0.770215 24.818 0.302832 24.6553 0.171094C24.4603 0.0130859 24.0648 0 19.4872 0C14.9096 0 14.5141 0.0130859 14.3191 0.171094ZM23.9337 3.04688C24.2672 4.38662 24.6934 5.47354 25.0812 5.97324C25.1507 6.0627 25.9741 6.59697 26.911 7.16035L28.6146 8.18486L29.5907 8.29717C30.8237 8.43896 30.9086 8.46553 30.9086 8.71006C30.9086 9.07471 30.222 10.9732 29.8207 11.7188C28.1456 14.8297 25.36 16.9254 21.8143 17.7422C21.2889 17.8633 20.6554 17.9066 19.4384 17.905C17.9024 17.9029 17.6943 17.8804 16.6411 17.603C12.6239 16.5447 9.53441 13.596 8.31067 9.65215C8.16629 9.18691 8.06359 8.72647 8.08234 8.629C8.11084 8.48105 8.28236 8.43213 9.11758 8.33398C11.2619 8.08203 12.1687 7.71689 13.2545 6.66836C14.1602 5.79355 14.5575 4.98848 15.0398 3.05049L15.4102 1.5625H19.4872H23.5643L23.9337 3.04688ZM12.1841 18.1909C12.8672 19.0986 13.2767 20.0322 13.21 20.5299C13.1511 20.9695 12.9325 21.3158 12.5187 21.6248C12.1407 21.9071 11.2147 21.9071 10.8367 21.6248C9.82649 20.8703 9.92625 19.85 11.1724 18.1909C11.4234 17.8565 11.6509 17.583 11.6777 17.583C11.7046 17.583 11.9324 17.8565 12.1841 18.1909ZM27.8031 18.1909C28.4862 19.0986 28.8957 20.0322 28.829 20.5299C28.7701 20.9695 28.5515 21.3158 28.1377 21.6248C27.7597 21.9071 26.8337 21.9071 26.4557 21.6248C25.4455 20.8703 25.5452 19.85 26.7913 18.1909C27.0424 17.8565 27.2699 17.583 27.2967 17.583C27.3236 17.583 27.5514 17.8565 27.8031 18.1909ZM20.0457 20.5834C21.5045 22.4634 22.0272 23.7979 21.7268 24.8757C21.5598 25.4748 20.787 26.2726 20.208 26.4438C19.2933 26.7141 18.5639 26.5236 17.8711 25.8334C16.6697 24.6366 16.9804 23.0941 18.9287 20.5834C19.209 20.2221 19.4604 19.9265 19.4872 19.9265C19.5141 19.9265 19.7654 20.2221 20.0457 20.5834ZM25.3977 28.9542C21.8724 29.6683 21.3785 29.7905 21.2179 29.989C21.0446 30.2029 21.0377 30.4388 21.075 34.8579C21.1109 39.1077 21.1312 39.5766 21.3147 40.3809C21.9142 43.0086 23.0758 45.1436 24.9085 46.9859C25.3698 47.4497 26.0948 48.0795 26.5196 48.3854C27.4512 49.0564 29.2729 50 29.6368 50C29.7814 50 30.3593 49.7692 30.9211 49.4873C34.5353 47.6733 37.0393 44.4357 37.9644 40.3809C38.148 39.5763 38.1682 39.1078 38.2042 34.8411L38.2435 30.1804L38.0149 29.9518C37.8169 29.7536 37.2508 29.6164 33.7754 28.924C31.5694 28.4846 29.6814 28.1294 29.58 28.1347C29.4785 28.14 27.5965 28.5088 25.3977 28.9542ZM33.2956 30.4281L36.6825 31.1028L36.6413 35.2535C36.5964 39.7593 36.5597 40.1058 35.9585 41.6992C34.9064 44.4878 32.788 46.8453 30.2009 48.1068L29.6396 48.3806L29.0783 48.1068C26.0051 46.6084 23.7209 43.7071 22.8801 40.2344C22.6974 39.4795 22.6756 39.0282 22.6398 35.2539L22.6004 31.1035L26.0467 30.4027C27.9423 30.0174 29.5866 29.7136 29.7009 29.7277C29.8152 29.7419 31.4328 30.0571 33.2956 30.4281ZM30.2596 37.3225L28.8633 38.7073L28.2349 38.1037C27.8841 37.7667 27.5185 37.5 27.4074 37.5C26.8661 37.5 26.4272 38.0127 26.5499 38.5017C26.5809 38.625 27.0409 39.1531 27.5723 39.6754C28.9346 41.0144 28.7548 41.0559 30.9197 38.9022C31.8991 37.9279 32.6782 37.0728 32.7131 36.9341C32.84 36.4279 32.4219 35.9375 31.8633 35.9375C31.7271 35.9375 31.176 36.4135 30.2596 37.3225ZM12.5848 37.7449C12.4417 37.8452 12.3407 38.0712 12.2682 38.4529C11.7821 41.0169 10.7834 43.3399 9.37705 45.1782C8.67635 46.0942 7.41472 47.3438 6.50394 48.0241C6.10126 48.3249 5.69488 48.6557 5.60097 48.7592C5.35477 49.0305 5.38533 49.4758 5.66979 49.7603L5.90935 50H14.9792C24.0071 50 24.0501 49.999 24.3062 49.7976C24.6695 49.5117 24.6695 48.9258 24.3062 48.6399C24.0509 48.439 23.9917 48.4375 16.2915 48.4375H8.53411L9.47428 47.4483C11.4986 45.3186 13.001 42.4812 13.6214 39.6168C13.8784 38.4301 13.8794 38.0831 13.6263 37.8114C13.3911 37.5589 12.8955 37.5272 12.5848 37.7449Z" fill="#F7AB42" stroke="#F6F8FA" stroke-width="0.2" mask="url(#path-1-inside-1_4_415)"/>
</svg>
