<svg width="9" height="14" viewBox="0 0 9 14" fill="none" xmlns="http://www.w3.org/2000/svg">
<path d="M6.1875 14H2.8125C1.26169 14 0 12.6916 0 11.0833V2.91667C0 1.30842 1.26169 0 2.8125 0H6.1875C7.73831 0 9 1.30842 9 2.91667V11.0833C9 12.6916 7.73831 14 6.1875 14ZM2.8125 1.16667C1.88213 1.16667 1.125 1.95183 1.125 2.91667V11.0833C1.125 12.0482 1.88213 12.8333 2.8125 12.8333H6.1875C7.11788 12.8333 7.875 12.0482 7.875 11.0833V2.91667C7.875 1.95183 7.11788 1.16667 6.1875 1.16667H2.8125ZM5.625 11.0833C5.625 10.7613 5.373 10.5 5.0625 10.5H3.9375C3.627 10.5 3.375 10.7613 3.375 11.0833C3.375 11.4053 3.627 11.6667 3.9375 11.6667H5.0625C5.373 11.6667 5.625 11.4053 5.625 11.0833Z" fill="#757C82"/>
</svg>

