<svg width="47" height="51" viewBox="0 0 47 51" fill="none" xmlns="http://www.w3.org/2000/svg">
<mask id="path-1-inside-1_4_399" fill="white">
<path fill-rule="evenodd" clip-rule="evenodd" d="M10.6136 0.0878759C10.387 0.19963 10.1861 0.566022 10.1861 0.867457C10.1861 0.971129 10.4294 1.33952 10.7268 1.68595C11.3804 2.44757 12.0727 3.84509 12.2845 4.83012C12.7728 7.10221 12.1036 9.53275 10.5233 11.2265L9.80652 11.9946L8.01405 10.1744L6.22168 8.35425L6.53569 8.03436L6.84969 7.71446L7.83148 8.40773C8.37154 8.78899 8.94686 9.18422 9.10994 9.2859C9.86724 9.75826 10.6625 8.7849 10.0637 8.11857C9.94256 7.98367 9.20798 7.41991 8.43148 6.86573C7.38975 6.12237 6.94107 5.85816 6.72021 5.85816C6.46203 5.85816 6.16115 6.12277 4.53264 7.78171C2.92431 9.4203 2.64468 9.74928 2.64546 10.0018C2.64624 10.2241 3.1007 10.959 4.46055 12.9373L6.27467 15.5762L3.13733 18.778C0.303822 21.6696 0 22.0112 0 22.305C0 22.7411 0.37199 23.1201 0.800004 23.1201C1.08796 23.1201 1.41656 22.8177 4.1632 20.0247L7.20719 16.9294L8.94686 19.4633L10.6865 21.997L13.4481 24.7828C15.8252 27.1807 16.3065 27.6198 16.9054 27.9364C18.6011 28.8328 20.4427 28.8255 22.0982 27.9158L22.7965 27.5321L23.8317 28.5939L24.8668 29.6557L24.9763 30.9029C25.2411 33.918 26.0395 36.7769 27.3756 39.4933C28.4882 41.7556 29.71 43.4868 31.5936 45.4701C32.2977 46.2114 32.9478 46.9289 33.0383 47.0646C33.276 47.4207 33.2574 48.3011 33.0033 48.7198C32.5668 49.4394 31.5622 49.6405 30.8002 49.1608C30.2986 48.8449 28.0517 46.3404 27.0325 44.9612C24.2035 41.1326 22.4248 36.5341 21.8887 31.6629C21.8158 31.0001 21.5277 30.6036 21.1193 30.6036C20.4194 30.6036 20.2315 30.996 20.3737 32.1611C20.945 36.8449 22.4932 41.0541 25.0487 44.8713C26.1718 46.5489 26.8297 47.3567 28.4416 49.038C30.0752 50.7417 30.4754 50.9872 31.6394 50.9993C32.2864 51.006 32.4595 50.966 33.0393 50.6752C34.2272 50.0795 34.8361 48.9939 34.7486 47.6282C34.6847 46.632 34.4457 46.2227 33.0966 44.7988C32.4604 44.1274 31.648 43.2097 31.2913 42.7596C29.0273 39.903 27.543 36.6452 26.844 32.9983C26.6601 32.039 26.4471 30.2354 26.5101 30.1713C26.5731 30.107 28.3435 30.324 29.2852 30.5114C32.8571 31.2219 36.0637 32.7364 38.8514 35.0292C39.2848 35.3858 40.219 36.2448 40.9274 36.9381C42.4495 38.428 42.7937 38.6243 43.8912 38.6296C44.5548 38.6329 44.7129 38.5945 45.3077 38.2854C46.4835 37.6743 47.0773 36.6038 46.9919 35.2488C46.9255 34.1937 46.6487 33.756 45.0165 32.1237C42.9118 30.0191 41.0137 28.5616 38.6388 27.2264C35.8979 25.6855 32.3533 24.4737 29.3514 24.0511L28.1588 23.8833L23.2127 18.8761C17.9889 13.5878 18.2676 13.8376 15.29 11.7755C14.8336 11.4594 14.3705 11.4724 14.111 11.8085C13.8853 12.1008 13.8516 12.5111 14.0336 12.7498C14.0992 12.8359 14.8801 13.4277 15.7689 14.065C16.9366 14.9021 17.6799 15.5264 18.4481 16.3152L19.5112 17.4069L19.0358 17.4727C18.7742 17.5089 18.3466 17.5876 18.0854 17.6476L17.6106 17.7566L17.008 17.156C16.6767 16.8258 16.2631 16.4827 16.0889 16.3937C15.6334 16.1609 15.0003 16.0969 14.5031 16.2333L14.0719 16.3515L12.5033 14.7536L10.9348 13.1557L11.5354 12.5015C13.1122 10.7843 13.8645 9.0125 13.976 6.75388C14.068 4.88819 13.6166 3.1595 12.639 1.63377C11.7181 0.196736 11.1978 -0.200389 10.6136 0.0878759ZM30.8737 3.33871C30.7658 3.4347 30.3202 4.08606 29.8834 4.78602C29.3311 5.67117 29.0893 6.15241 29.0893 6.36673C29.0893 6.62816 29.3115 6.90994 30.5579 8.22873L32.0267 9.7828L31.5191 9.9649C30.3254 10.3932 28.982 11.5278 28.3233 12.664C27.543 14.0098 27.2524 15.7484 27.5596 17.2331C28.0615 19.6594 30.0212 21.6715 32.3704 22.1723C36.8176 23.1202 40.7533 19.1138 39.8137 14.5953C39.389 12.5531 37.7626 10.6452 35.8662 9.9649L35.3586 9.7828L36.8273 8.22873C38.0738 6.90994 38.296 6.62816 38.296 6.36673C38.296 6.15241 38.0542 5.67117 37.5019 4.78602C37.065 4.08606 36.6195 3.4347 36.5116 3.33871C36.213 3.0729 31.1722 3.0729 30.8737 3.33871ZM36.0957 5.5197L36.56 6.27873L35.1263 7.73931L33.6926 9.19999L32.2589 7.73931L30.8252 6.27873L31.2896 5.5197L31.754 4.76058H33.6926H35.6312L36.0957 5.5197ZM9.0358 13.5168L12.9287 17.4835L12.8306 17.8316C12.5629 18.7826 12.7802 19.4681 13.6422 20.3925L14.3108 21.1095L14.1584 21.8612C14.0745 22.2746 14.0059 22.7149 14.0059 22.8398C14.0059 23.0237 13.7998 22.8586 12.921 21.9709C11.9272 20.9669 11.5341 20.4355 8.23628 15.6366C6.25635 12.7555 4.60218 10.3384 4.56026 10.2653C4.4916 10.1457 4.93058 9.55002 5.08739 9.55002C5.11795 9.55002 6.89475 11.3351 9.0358 13.5168ZM34.8149 11.2993C37.3232 11.9649 38.8822 14.5829 38.2478 17.0642C37.8054 18.7944 36.5042 20.1243 34.8149 20.5726C32.364 21.223 29.7965 19.6421 29.1413 17.0792C28.2683 13.6649 31.4634 10.4099 34.8149 11.2993ZM15.7972 18.1269L16.2097 18.5217L15.6424 19.0998L15.075 19.6777L14.6874 19.2575C14.2201 18.7508 14.174 18.35 14.5402 17.9769C14.9064 17.6039 15.2999 17.6508 15.7972 18.1269ZM21.0999 19.4103C22.4297 20.0443 23.2953 21.3127 23.3865 22.7612C23.5758 25.7653 20.5387 27.8971 17.8774 26.6283C17.0132 26.2164 16.4242 25.6324 16.0103 24.7773C14.9107 22.5057 16.0758 19.8914 18.5114 19.1654C19.2365 18.9493 20.3549 19.0551 21.0999 19.4103ZM18.9025 20.713C17.1622 21.2935 16.6 23.2623 17.7895 24.6101C18.7011 25.643 20.1885 25.6867 21.1483 24.7089C21.5601 24.2894 21.7425 23.9061 21.8111 23.3167C21.9668 21.9771 20.983 20.7723 19.6497 20.6697C19.3738 20.6486 19.0375 20.668 18.9025 20.713ZM20.1029 22.5328C20.6605 23.217 19.7527 24.184 19.0341 23.6712C18.6115 23.3697 18.6691 22.5724 19.1305 22.3368C19.4259 22.186 19.8979 22.2811 20.1029 22.5328ZM27.9629 25.4622C32.5167 25.9795 36.9547 27.6967 40.5487 30.332C41.6456 31.1362 42.4041 31.7872 43.846 33.1616C45.06 34.3187 45.4459 34.869 45.4459 35.4429C45.4459 35.8803 45.0775 36.5594 44.7173 36.7862C44.3063 37.045 43.4421 37.064 43.0926 36.8218C42.9594 36.7296 42.2551 36.0674 41.5274 35.35C39.5678 33.4184 37.891 32.1893 35.6605 31.0495C33.0176 29.6991 30.1801 28.8777 27.2284 28.6087L26.0041 28.4971L24.9618 27.4426L23.9195 26.388L24.2962 25.6766C24.6807 24.9503 24.9716 23.9414 24.9742 23.3248L24.9756 22.9806L26.1755 24.188L27.3753 25.3955L27.9629 25.4622ZM4.29072 27.582C3.27739 28.6091 2.42156 29.5354 2.38885 29.6403C2.28532 29.9728 2.94987 32.9011 3.19483 33.1914L3.41089 33.4473L6.45616 33.4764L9.50142 33.5054L9.74589 33.2564L9.99026 33.0074V30.0045C9.99026 26.5996 9.97145 26.4949 9.32845 26.321C8.5449 26.1092 6.63167 25.7144 6.38887 25.7144C6.18799 25.7144 5.73823 26.1148 4.29072 27.582ZM7.68584 27.5757L8.42316 27.7407V29.8228V31.9048L6.39386 31.8778L4.36447 31.8509L4.17985 31.0145L3.99512 30.1781L5.35086 28.7944C6.09651 28.0334 6.76096 27.4106 6.82746 27.4106C6.89396 27.4106 7.28025 27.4849 7.68584 27.5757ZM5.7253 36.9351C5.49278 37.1719 5.48485 37.2265 5.48485 38.5815C5.48485 39.6995 5.45782 39.9829 5.35106 39.9829C5.2775 39.9829 4.90806 40.1406 4.53009 40.3332C3.69502 40.7588 3.1292 41.3576 2.70961 42.2599C2.42891 42.8635 2.39962 43.0164 2.39962 43.8795C2.39962 44.7791 2.42019 44.8749 2.76544 45.5866C3.20599 46.4948 3.77309 47.0604 4.68367 47.4999C5.27535 47.7854 5.42696 47.8157 6.2684 47.8157C7.10983 47.8157 7.26145 47.7854 7.85313 47.4999C8.76371 47.0604 9.3308 46.4948 9.77135 45.5866C10.1166 44.8749 10.1372 44.7791 10.1372 43.8795C10.1372 43.0164 10.1079 42.8635 9.82718 42.2599C9.40759 41.3576 8.84177 40.7588 8.0067 40.3332C7.62874 40.1406 7.25929 39.9829 7.18574 39.9829C7.07898 39.9829 7.05195 39.6995 7.05195 38.5815C7.05195 37.2265 7.04401 37.1719 6.81149 36.9351C6.65998 36.7807 6.45919 36.6902 6.2684 36.6902C6.0776 36.6902 5.87682 36.7807 5.7253 36.9351ZM15.1279 36.9351C14.8954 37.1719 14.8874 37.2265 14.8874 38.5815C14.8874 39.6995 14.8604 39.9829 14.7537 39.9829C14.6801 39.9829 14.3107 40.1406 13.9327 40.3332C13.0976 40.7588 12.5318 41.3576 12.1122 42.2599C11.8315 42.8635 11.8022 43.0164 11.8022 43.8795C11.8022 44.7791 11.8228 44.8749 12.168 45.5866C12.6086 46.4948 13.1757 47.0604 14.0863 47.4999C14.6779 47.7854 14.8296 47.8157 15.671 47.8157C16.5124 47.8157 16.664 47.7854 17.2557 47.4999C18.1663 47.0604 18.7334 46.4948 19.174 45.5866C19.5192 44.8749 19.5398 44.7791 19.5398 43.8795C19.5398 43.0164 19.5105 42.8635 19.2298 42.2599C18.8102 41.3576 18.2444 40.7588 17.4093 40.3332C17.0313 40.1406 16.6619 39.9829 16.5883 39.9829C16.4816 39.9829 16.4545 39.6995 16.4545 38.5815C16.4545 37.2265 16.4466 37.1719 16.2141 36.9351C16.0626 36.7807 15.8618 36.6902 15.671 36.6902C15.4802 36.6902 15.2794 36.7807 15.1279 36.9351ZM6.99161 41.601C7.83334 41.8543 8.61905 42.9519 8.61905 43.8744C8.61905 45.1107 7.48202 46.2691 6.2684 46.2691C5.65233 46.2691 5.15625 46.0409 4.649 45.5241C3.6581 44.5146 3.6581 43.2352 4.649 42.2235C5.33607 41.522 6.07613 41.3254 6.99161 41.601ZM16.3942 41.601C16.9322 41.7629 17.7436 42.5895 17.9025 43.1376C18.1738 44.0731 17.9826 44.819 17.2904 45.5241C16.7831 46.0409 16.2871 46.2691 15.671 46.2691C14.4574 46.2691 13.3203 45.1107 13.3203 43.8744C13.3203 43.2472 13.5444 42.7412 14.0516 42.2235C14.7387 41.522 15.4787 41.3254 16.3942 41.601Z"/>
</mask>
<path fill-rule="evenodd" clip-rule="evenodd" d="M10.6136 0.0878759C10.387 0.19963 10.1861 0.566022 10.1861 0.867457C10.1861 0.971129 10.4294 1.33952 10.7268 1.68595C11.3804 2.44757 12.0727 3.84509 12.2845 4.83012C12.7728 7.10221 12.1036 9.53275 10.5233 11.2265L9.80652 11.9946L8.01405 10.1744L6.22168 8.35425L6.53569 8.03436L6.84969 7.71446L7.83148 8.40773C8.37154 8.78899 8.94686 9.18422 9.10994 9.2859C9.86724 9.75826 10.6625 8.7849 10.0637 8.11857C9.94256 7.98367 9.20798 7.41991 8.43148 6.86573C7.38975 6.12237 6.94107 5.85816 6.72021 5.85816C6.46203 5.85816 6.16115 6.12277 4.53264 7.78171C2.92431 9.4203 2.64468 9.74928 2.64546 10.0018C2.64624 10.2241 3.1007 10.959 4.46055 12.9373L6.27467 15.5762L3.13733 18.778C0.303822 21.6696 0 22.0112 0 22.305C0 22.7411 0.37199 23.1201 0.800004 23.1201C1.08796 23.1201 1.41656 22.8177 4.1632 20.0247L7.20719 16.9294L8.94686 19.4633L10.6865 21.997L13.4481 24.7828C15.8252 27.1807 16.3065 27.6198 16.9054 27.9364C18.6011 28.8328 20.4427 28.8255 22.0982 27.9158L22.7965 27.5321L23.8317 28.5939L24.8668 29.6557L24.9763 30.9029C25.2411 33.918 26.0395 36.7769 27.3756 39.4933C28.4882 41.7556 29.71 43.4868 31.5936 45.4701C32.2977 46.2114 32.9478 46.9289 33.0383 47.0646C33.276 47.4207 33.2574 48.3011 33.0033 48.7198C32.5668 49.4394 31.5622 49.6405 30.8002 49.1608C30.2986 48.8449 28.0517 46.3404 27.0325 44.9612C24.2035 41.1326 22.4248 36.5341 21.8887 31.6629C21.8158 31.0001 21.5277 30.6036 21.1193 30.6036C20.4194 30.6036 20.2315 30.996 20.3737 32.1611C20.945 36.8449 22.4932 41.0541 25.0487 44.8713C26.1718 46.5489 26.8297 47.3567 28.4416 49.038C30.0752 50.7417 30.4754 50.9872 31.6394 50.9993C32.2864 51.006 32.4595 50.966 33.0393 50.6752C34.2272 50.0795 34.8361 48.9939 34.7486 47.6282C34.6847 46.632 34.4457 46.2227 33.0966 44.7988C32.4604 44.1274 31.648 43.2097 31.2913 42.7596C29.0273 39.903 27.543 36.6452 26.844 32.9983C26.6601 32.039 26.4471 30.2354 26.5101 30.1713C26.5731 30.107 28.3435 30.324 29.2852 30.5114C32.8571 31.2219 36.0637 32.7364 38.8514 35.0292C39.2848 35.3858 40.219 36.2448 40.9274 36.9381C42.4495 38.428 42.7937 38.6243 43.8912 38.6296C44.5548 38.6329 44.7129 38.5945 45.3077 38.2854C46.4835 37.6743 47.0773 36.6038 46.9919 35.2488C46.9255 34.1937 46.6487 33.756 45.0165 32.1237C42.9118 30.0191 41.0137 28.5616 38.6388 27.2264C35.8979 25.6855 32.3533 24.4737 29.3514 24.0511L28.1588 23.8833L23.2127 18.8761C17.9889 13.5878 18.2676 13.8376 15.29 11.7755C14.8336 11.4594 14.3705 11.4724 14.111 11.8085C13.8853 12.1008 13.8516 12.5111 14.0336 12.7498C14.0992 12.8359 14.8801 13.4277 15.7689 14.065C16.9366 14.9021 17.6799 15.5264 18.4481 16.3152L19.5112 17.4069L19.0358 17.4727C18.7742 17.5089 18.3466 17.5876 18.0854 17.6476L17.6106 17.7566L17.008 17.156C16.6767 16.8258 16.2631 16.4827 16.0889 16.3937C15.6334 16.1609 15.0003 16.0969 14.5031 16.2333L14.0719 16.3515L12.5033 14.7536L10.9348 13.1557L11.5354 12.5015C13.1122 10.7843 13.8645 9.0125 13.976 6.75388C14.068 4.88819 13.6166 3.1595 12.639 1.63377C11.7181 0.196736 11.1978 -0.200389 10.6136 0.0878759ZM30.8737 3.33871C30.7658 3.4347 30.3202 4.08606 29.8834 4.78602C29.3311 5.67117 29.0893 6.15241 29.0893 6.36673C29.0893 6.62816 29.3115 6.90994 30.5579 8.22873L32.0267 9.7828L31.5191 9.9649C30.3254 10.3932 28.982 11.5278 28.3233 12.664C27.543 14.0098 27.2524 15.7484 27.5596 17.2331C28.0615 19.6594 30.0212 21.6715 32.3704 22.1723C36.8176 23.1202 40.7533 19.1138 39.8137 14.5953C39.389 12.5531 37.7626 10.6452 35.8662 9.9649L35.3586 9.7828L36.8273 8.22873C38.0738 6.90994 38.296 6.62816 38.296 6.36673C38.296 6.15241 38.0542 5.67117 37.5019 4.78602C37.065 4.08606 36.6195 3.4347 36.5116 3.33871C36.213 3.0729 31.1722 3.0729 30.8737 3.33871ZM36.0957 5.5197L36.56 6.27873L35.1263 7.73931L33.6926 9.19999L32.2589 7.73931L30.8252 6.27873L31.2896 5.5197L31.754 4.76058H33.6926H35.6312L36.0957 5.5197ZM9.0358 13.5168L12.9287 17.4835L12.8306 17.8316C12.5629 18.7826 12.7802 19.4681 13.6422 20.3925L14.3108 21.1095L14.1584 21.8612C14.0745 22.2746 14.0059 22.7149 14.0059 22.8398C14.0059 23.0237 13.7998 22.8586 12.921 21.9709C11.9272 20.9669 11.5341 20.4355 8.23628 15.6366C6.25635 12.7555 4.60218 10.3384 4.56026 10.2653C4.4916 10.1457 4.93058 9.55002 5.08739 9.55002C5.11795 9.55002 6.89475 11.3351 9.0358 13.5168ZM34.8149 11.2993C37.3232 11.9649 38.8822 14.5829 38.2478 17.0642C37.8054 18.7944 36.5042 20.1243 34.8149 20.5726C32.364 21.223 29.7965 19.6421 29.1413 17.0792C28.2683 13.6649 31.4634 10.4099 34.8149 11.2993ZM15.7972 18.1269L16.2097 18.5217L15.6424 19.0998L15.075 19.6777L14.6874 19.2575C14.2201 18.7508 14.174 18.35 14.5402 17.9769C14.9064 17.6039 15.2999 17.6508 15.7972 18.1269ZM21.0999 19.4103C22.4297 20.0443 23.2953 21.3127 23.3865 22.7612C23.5758 25.7653 20.5387 27.8971 17.8774 26.6283C17.0132 26.2164 16.4242 25.6324 16.0103 24.7773C14.9107 22.5057 16.0758 19.8914 18.5114 19.1654C19.2365 18.9493 20.3549 19.0551 21.0999 19.4103ZM18.9025 20.713C17.1622 21.2935 16.6 23.2623 17.7895 24.6101C18.7011 25.643 20.1885 25.6867 21.1483 24.7089C21.5601 24.2894 21.7425 23.9061 21.8111 23.3167C21.9668 21.9771 20.983 20.7723 19.6497 20.6697C19.3738 20.6486 19.0375 20.668 18.9025 20.713ZM20.1029 22.5328C20.6605 23.217 19.7527 24.184 19.0341 23.6712C18.6115 23.3697 18.6691 22.5724 19.1305 22.3368C19.4259 22.186 19.8979 22.2811 20.1029 22.5328ZM27.9629 25.4622C32.5167 25.9795 36.9547 27.6967 40.5487 30.332C41.6456 31.1362 42.4041 31.7872 43.846 33.1616C45.06 34.3187 45.4459 34.869 45.4459 35.4429C45.4459 35.8803 45.0775 36.5594 44.7173 36.7862C44.3063 37.045 43.4421 37.064 43.0926 36.8218C42.9594 36.7296 42.2551 36.0674 41.5274 35.35C39.5678 33.4184 37.891 32.1893 35.6605 31.0495C33.0176 29.6991 30.1801 28.8777 27.2284 28.6087L26.0041 28.4971L24.9618 27.4426L23.9195 26.388L24.2962 25.6766C24.6807 24.9503 24.9716 23.9414 24.9742 23.3248L24.9756 22.9806L26.1755 24.188L27.3753 25.3955L27.9629 25.4622ZM4.29072 27.582C3.27739 28.6091 2.42156 29.5354 2.38885 29.6403C2.28532 29.9728 2.94987 32.9011 3.19483 33.1914L3.41089 33.4473L6.45616 33.4764L9.50142 33.5054L9.74589 33.2564L9.99026 33.0074V30.0045C9.99026 26.5996 9.97145 26.4949 9.32845 26.321C8.5449 26.1092 6.63167 25.7144 6.38887 25.7144C6.18799 25.7144 5.73823 26.1148 4.29072 27.582ZM7.68584 27.5757L8.42316 27.7407V29.8228V31.9048L6.39386 31.8778L4.36447 31.8509L4.17985 31.0145L3.99512 30.1781L5.35086 28.7944C6.09651 28.0334 6.76096 27.4106 6.82746 27.4106C6.89396 27.4106 7.28025 27.4849 7.68584 27.5757ZM5.7253 36.9351C5.49278 37.1719 5.48485 37.2265 5.48485 38.5815C5.48485 39.6995 5.45782 39.9829 5.35106 39.9829C5.2775 39.9829 4.90806 40.1406 4.53009 40.3332C3.69502 40.7588 3.1292 41.3576 2.70961 42.2599C2.42891 42.8635 2.39962 43.0164 2.39962 43.8795C2.39962 44.7791 2.42019 44.8749 2.76544 45.5866C3.20599 46.4948 3.77309 47.0604 4.68367 47.4999C5.27535 47.7854 5.42696 47.8157 6.2684 47.8157C7.10983 47.8157 7.26145 47.7854 7.85313 47.4999C8.76371 47.0604 9.3308 46.4948 9.77135 45.5866C10.1166 44.8749 10.1372 44.7791 10.1372 43.8795C10.1372 43.0164 10.1079 42.8635 9.82718 42.2599C9.40759 41.3576 8.84177 40.7588 8.0067 40.3332C7.62874 40.1406 7.25929 39.9829 7.18574 39.9829C7.07898 39.9829 7.05195 39.6995 7.05195 38.5815C7.05195 37.2265 7.04401 37.1719 6.81149 36.9351C6.65998 36.7807 6.45919 36.6902 6.2684 36.6902C6.0776 36.6902 5.87682 36.7807 5.7253 36.9351ZM15.1279 36.9351C14.8954 37.1719 14.8874 37.2265 14.8874 38.5815C14.8874 39.6995 14.8604 39.9829 14.7537 39.9829C14.6801 39.9829 14.3107 40.1406 13.9327 40.3332C13.0976 40.7588 12.5318 41.3576 12.1122 42.2599C11.8315 42.8635 11.8022 43.0164 11.8022 43.8795C11.8022 44.7791 11.8228 44.8749 12.168 45.5866C12.6086 46.4948 13.1757 47.0604 14.0863 47.4999C14.6779 47.7854 14.8296 47.8157 15.671 47.8157C16.5124 47.8157 16.664 47.7854 17.2557 47.4999C18.1663 47.0604 18.7334 46.4948 19.174 45.5866C19.5192 44.8749 19.5398 44.7791 19.5398 43.8795C19.5398 43.0164 19.5105 42.8635 19.2298 42.2599C18.8102 41.3576 18.2444 40.7588 17.4093 40.3332C17.0313 40.1406 16.6619 39.9829 16.5883 39.9829C16.4816 39.9829 16.4545 39.6995 16.4545 38.5815C16.4545 37.2265 16.4466 37.1719 16.2141 36.9351C16.0626 36.7807 15.8618 36.6902 15.671 36.6902C15.4802 36.6902 15.2794 36.7807 15.1279 36.9351ZM6.99161 41.601C7.83334 41.8543 8.61905 42.9519 8.61905 43.8744C8.61905 45.1107 7.48202 46.2691 6.2684 46.2691C5.65233 46.2691 5.15625 46.0409 4.649 45.5241C3.6581 44.5146 3.6581 43.2352 4.649 42.2235C5.33607 41.522 6.07613 41.3254 6.99161 41.601ZM16.3942 41.601C16.9322 41.7629 17.7436 42.5895 17.9025 43.1376C18.1738 44.0731 17.9826 44.819 17.2904 45.5241C16.7831 46.0409 16.2871 46.2691 15.671 46.2691C14.4574 46.2691 13.3203 45.1107 13.3203 43.8744C13.3203 43.2472 13.5444 42.7412 14.0516 42.2235C14.7387 41.522 15.4787 41.3254 16.3942 41.601Z" fill="#F7AB42" stroke="#F6F8FA" stroke-width="0.4" mask="url(#path-1-inside-1_4_399)"/>
</svg>
